# Tiled2Unity generated file. Do not modify by hand.
# Wavefront file for 'Map2_mesh_0003.obj'

# Vertices (Count = 8)
v -17 -4 0
v -18 -4 0
v -18 -3 0
v -17 -3 0
v -17 -5 0
v -18 -5 0
v -18 -4 0
v -17 -4 0

# Texture cooridinates (Count = 8)
vt 0.075 0.1111111
vt 0.1 0.1111111
vt 0.1 0.1388889
vt 0.075 0.1388889
vt 0.1 0.1944444
vt 0.125 0.1944444
vt 0.125 0.2222222
vt 0.1 0.2222222

# Normal
vn 0 0 -1

# Mesh description
g Map2_mesh_0003

# Faces
f 1/1/1 2/2/1 3/3/1 4/4/1
f 5/5/1 6/6/1 7/7/1 8/8/1

