# Tiled2Unity generated file. Do not modify by hand.
# Wavefront file for 'Overworld_mesh_0002.obj'

# Vertices (Count = 12)
v -23 -3 0
v -24 -3 0
v -24 -2 0
v -23 -2 0
v -22 -3 0
v -23 -3 0
v -23 -2 0
v -22 -2 0
v -22 -4 0
v -23 -4 0
v -23 -3 0
v -22 -3 0

# Texture cooridinates (Count = 8)
vt 0.725 0.9166667
vt 0.75 0.9166667
vt 0.75 0.9444444
vt 0.725 0.9444444
vt 0.7 0.9166667
vt 0.7 0.9444444
vt 0.675 0.9166667
vt 0.675 0.9444444

# Normal
vn 0 0 -1

# Mesh description
g Overworld_mesh_0002

# Faces
f 1/1/1 2/2/1 3/3/1 4/4/1
f 5/5/1 6/1/1 7/4/1 8/6/1
f 9/7/1 10/5/1 11/6/1 12/8/1

